:SAMPLES-PER-SECOND 30
:FULLY-SPECIFIED
:DEGREES
453
root  -37.1426 37.8508 -24.0364 -133.024 -89.0524 156.304
RightUpLeg  -59.7654 -25.6463 16.3851
RightLeg  20.251 9.53415 3.63172
RightFoot  13.0147 1.03058 -4.34074
RightToes  0.00048216 0.542163 -0.142577
Spine  62.6082 -5.08453 7.50453
Spine1  8.63497 0.105584 -2.10035
HEad  -34.621 -7.51311 -2.3503
LeftShoulder1  8.87841 -26.9511 -22.6385
LeftArm  -44.8171 -63.6678 -10.5527
LeftForeArm  -2.74334 -13.6636 -2.91038
LeftHand  -0.25398 0.0180481 5.50724
RightShoulder  4.12557 14.1947 16.6333
RightArm  -48.9848 49.7807 -4.08688
RightForeArm  -29.455 10.1497 5.57011
RightHand  0.691094 0.687041 13.1463
LeftUpLeg  -58.7675 20.8541 -17.0539
LeftLeg  36.7361 -0.623786 -0.129129
LeftFoot  -0.511537 -1.01115 10.6682
LeftToes  1.06244e-005 4.65856e-005 -8.18505e-006
454
root  -37.7097 37.8733 -24.8084 -125.592 -89.8467 152.065
RightUpLeg  -63.1871 -25.2794 19.4801
RightLeg  21.5679 9.30027 3.80819
RightFoot  11.7076 1.1876 -5.41688
RightToes  0.00048216 0.542163 -0.142577
Spine  64.327 -5.15891 7.63558
Spine1  7.50168 0.275164 -2.15762
HEad  -35.6121 -7.18631 -2.4769
LeftShoulder1  8.60772 -27.4631 -21.1929
LeftArm  -52.2529 -64.8442 -3.01903
LeftForeArm  -4.07428 -13.3037 -2.29577
LeftHand  -0.25398 0.0180481 5.50724
RightShoulder  4.10515 14.7666 15.7107
RightArm  -54.8546 51.2496 -9.82498
RightForeArm  -27.1255 8.0567 4.46587
RightHand  0.961098 2.43978 13.959
LeftUpLeg  -62.5846 22.088 -19.6049
LeftLeg  36.8543 1.53213 1.60112
LeftFoot  -0.654049 -0.863402 9.24601
LeftToes  1.06244e-005 4.65856e-005 -8.18505e-006
455
root  -38.3023 37.9005 -25.5185 -7.448 -89.2609 37.208
RightUpLeg  -66.717 -24.8977 22.71
RightLeg  22.763 9.60428 4.1842
RightFoot  10.5489 1.36367 -6.66855
RightToes  0.00048216 0.542163 -0.142577
Spine  65.6251 -5.45348 8.00037
Spine1  6.7394 0.493624 -2.89633
HEad  -36.3419 -7.00607 -2.41728
LeftShoulder1  8.41393 -27.9796 -20.0418
LeftArm  -60.0672 -65.6439 5.65622
LeftForeArm  -4.94944 -12.8683 -1.74839
LeftHand  -0.25398 0.0180481 5.50724
RightShoulder  4.07524 14.9997 15.2247
RightArm  -60.7273 52.1849 -15.4715
RightForeArm  -25.4019 6.73346 3.44629
RightHand  1.1731 3.92944 14.1882
LeftUpLeg  -66.197 23.4133 -22.8824
LeftLeg  36.2637 3.20314 2.89148
LeftFoot  -1.4706 -0.715313 8.37164
LeftToes  1.06244e-005 4.65856e-005 -8.18505e-006
456
root  -38.8949 37.8982 -26.1561 28.699 -88.903 4.04068
RightUpLeg  -69.717 -24.0421 25.5784
RightLeg  24.2307 9.69074 4.52003
RightFoot  8.47723 1.42911 -7.82913
RightToes  0.00048216 0.542163 -0.142577
Spine  66.7734 -5.67014 8.48818
Spine1  6.00739 0.974072 -3.91278
HEad  -36.715 -6.96608 -2.35846
LeftShoulder1  8.03714 -28.2752 -18.5012
LeftArm  -66.5259 -65.786 12.2875
LeftForeArm  -4.91366 -13.2003 -1.36891
LeftHand  -0.25398 0.0180481 5.50724
RightShoulder  3.96838 15.2214 14.3138
RightArm  -64.8059 51.9315 -19.897
RightForeArm  -24.0024 5.88613 2.67584
RightHand  1.46546 6.21761 14.1117
LeftUpLeg  -69.5759 24.888 -25.9122
LeftLeg  35.7369 3.79045 3.29493
LeftFoot  -2.67125 -0.586001 7.93124
LeftToes  1.06244e-005 4.65856e-005 -8.18505e-006
457
root  -39.4623 37.8515 -26.7496 37.416 -88.4931 -2.29682
RightUpLeg  -72.0227 -23.1711 27.7049
RightLeg  25.8713 9.43962 4.73258
RightFoot  6.56025 1.43709 -8.81002
RightToes  0.00048216 0.542163 -0.142577
Spine  67.952 -5.78825 8.71858
Spine1  5.30428 1.40122 -4.78574
HEad  -36.8733 -6.82271 -2.25463
LeftShoulder1  7.44992 -28.1873 -16.5864
LeftArm  -70.9227 -65.5259 16.4878
LeftForeArm  -4.855 -14.0518 -1.32003
LeftHand  -0.25398 0.0180481 5.50724
RightShoulder  3.74448 15.5337 12.634
RightArm  -66.859 50.7459 -22.1547
RightForeArm  -22.714 5.48577 2.01722
RightHand  1.81683 9.06138 13.9551
LeftUpLeg  -72.3133 26.1327 -28.1616
LeftLeg  35.6127 3.19978 2.82731
LeftFoot  -3.84757 -0.466706 7.46834
LeftToes  1.06244e-005 4.65856e-005 -8.18505e-006
